<svg xmlns="http://www.w3.org/2000/svg" width="22.573" height="18.8" viewBox="0 0 22.573 18.8">
  <g id="icon-down-2" transform="translate(-174.755 -127.687)">
    <path id="Path_5298" data-name="Path 5298" d="M195.828,146.487a1.492,1.492,0,0,1-.971-.357l-8.685-7.384a1.5,1.5,0,0,1-.072-2.22l8.685-8.416a1.5,1.5,0,0,1,2.088,2.155l-7.5,7.266,7.426,6.314a1.5,1.5,0,0,1-.972,2.642Z" fill="#e59807"/>
    <path id="Path_5297" data-name="Path 5297" d="M184.939,146.487a1.492,1.492,0,0,1-.971-.357l-8.685-7.384a1.5,1.5,0,0,1-.072-2.22l8.685-8.416a1.5,1.5,0,1,1,2.087,2.155l-7.5,7.266,7.426,6.314a1.5,1.5,0,0,1-.972,2.642Z" fill="#e59807"/>
  </g>
</svg>
